# AST/ASF file generated using VICON BodyLanguage
# -----------------------------------------------
:version 1.10
:name VICON
:units
  mass 1.0
  length 0.45
  angle deg
:documentation
   .ast/.asf automatically generated from VICON data using
   VICON BodyBuilder and BodyLanguage model FoxedUp or BRILLIANT.MOD
:root
   order TX TY TZ RX RY RZ
   axis XYZ
   position 0 0 0  
   orientation 0 0 0 
:bonedata
  begin
     id 1 
     name lhipjoint
     direction 0.558404 -0.748506 0.357664 
     length 2.4234 
     axis 0 0 0  XYZ
  end
  begin
     id 2 
     name lfemur
     direction 0.34202 -0.939693 0  
     length 7.14567  
     axis 0 0 20  XYZ
    dof rx ry rz
    limits (-160.0 20.0)
           (-70.0 70.0)
           (-60.0 70.0)
  end
  begin
     id 3 
     name ltibia
     direction 0.34202 -0.939693 0   
     length 8.13956   
     axis 0 0 20   XYZ
    dof rx
    limits (-10.0 170.0)
  end
  begin
     id 4 
     name lfoot
     direction 0.0791314 -0.217412 0.972867   
     length 2.00134   
     axis -90 7.62852e-016 20   XYZ
    dof rx rz
    limits (-45.0 90.0)
           (-70.0 20.0)
  end
  begin
     id 5 
     name ltoes
     direction 1.53547e-011 -4.21922e-011 1   
     length 1.00735   
     axis -90 7.62852e-016 20   XYZ
    dof rx
    limits (-90.0 20.0)
  end
  begin
     id 6 
     name rhipjoint
     direction -0.496392 -0.78327 0.374276   
     length 2.31584  
     axis 0 0 0  XYZ 
  end
  begin
     id 7 
     name rfemur
     direction -0.34202 -0.939693 0   
     length 7.47417   
     axis 0 0 -20   XYZ
    dof rx ry rz
    limits (-160.0 20.0)
           (-70.0 70.0)
           (-70.0 60.0)
  end
  begin
     id 8 
     name rtibia
     direction -0.34202 -0.939693 0   
     length 7.69071   
     axis 0 0 -20   XYZ
    dof rx
    limits (-10.0 170.0)
 end
 begin
     id 9 
     name rfoot
     direction -0.103069 -0.28318 0.953512   
     length 2.16135  
     axis -90 -7.62852e-016 -20   XYZ
    dof rx rz
    limits (-45.0 90.0)
           (-20.0 70.0)
  end
  begin
     id 10 
     name rtoes
     direction -1.53581e-011 -4.21904e-011 1   
     length 1.07867   
     axis -90 -7.62852e-016 -20   XYZ
    dof rx
    limits (-90.0 20.0)
  end
  begin
     id 11 
     name lowerback
     direction -0.0258961 0.994776 -0.0987407   
     length 2.19412   
     axis 0 0 0   XYZ
    dof rx ry rz
    limits (-20.0 45.0)
           (-30.0 30.0)
           (-30.0 30.0)
  end
  begin
     id 12 
     name upperback
     direction 0.0402454 0.999185 0.00320666   
     length 2.18445   
     axis 0 0 0   XYZ
    dof rx ry rz
    limits (-20.0 45.0)
           (-30.0 30.0)
           (-30.0 30.0)
  end
  begin
     id 13 
     name thorax
     direction 0.0519376 0.997415 0.0496558   
     length 2.21487   
     axis 0 0 0   XYZ
    dof rx ry rz
    limits (-20.0 45.0)
           (-30.0 30.0)
           (-30.0 30.0)
  end
  begin
     id 14 
     name lowerneck
     direction -0.0921276 0.983211 0.157506   
     length 1.61201   
     axis 0 0 0   XYZ
    dof rx ry rz
    limits (-20.0 45.0)
           (-30.0 30.0)
           (-30.0 30.0)
  end
  begin
     id 15 
     name upperneck
     direction 0.0820814 0.98162 -0.172292   
     length 1.65275   
     axis 0 0 0   XYZ
    dof rx ry rz
    limits (-20.0 45.0)
           (-30.0 30.0)
           (-30.0 30.0)
  end
  begin
     id 16
     name head
     direction 0.0336554 0.996413 -0.0776455  
     length 1.66415  
     axis 0 0 0   XYZ
    dof rx ry rz
    limits (-20.0 45.0)
           (-30.0 30.0)
           (-30.0 30.0)
  end
  begin
     id 17 
     name lclavicle
     direction 0.94696 0.284418 -0.149576  
     length 3.41447  
     axis 0 0 0   XYZ
    dof ry rz
    limits (-20.0 10.0)
           (0.0 20.0)
  end
  begin
     id 18 
     name lhumerus
     direction 1 -0.000130264 -9.81312e-005   
     length 5.19964   
     axis 180 -30 -90   XYZ
    dof rx ry rz
    limits (-60.0 90.0)
           (-90.0 90.0)
           (-90.0 90.0)
  end
  begin
     id 19
     name lradius
     direction 1 -4.48961e-011 1.43854e-026   
     length 3.32189   
     axis 180 -30 -90   XYZ
    dof rx
    limits (-10.0 170.0)
  end
  begin
     id 20
     name lwrist
     direction 1 -4.48958e-011 3.1502e-026   
     length 1.66095   
     axis -1.97692e-014 90 90   XYZ
    dof ry
    limits (-180.0 0.0)
 end
  begin
     id 21 
     name lhand
     direction 1 -4.48927e-011 6.3004e-026   
     length 0.645616   
     axis -4.02019e-014 90 90   XYZ
    dof rx rz
    limits (-90.0 90.0)
           (-45.0 45.0)
  end
  begin
     id 22 
     name lfingers
     direction 1 -4.4904e-011 1.26008e-025   
     length 0.520512   
     axis -8.04039e-014 90 90   XYZ
    dof rx
    limits (0.0 90.0)
  end
  begin
     id 23
     name lthumb
     direction 0.707107 -6.34947e-011 0.707107   
     length 0.747354   
     axis -90 45 2.85299e-015   XYZ
    dof rx rz
    limits (-45.0 45.0)
           (-45.0 45.0)
  end
  begin
     id 24 
     name rclavicle
     direction -0.909391 0.383475 -0.161107   
     length 3.25176  
     axis 0 0 0   XYZ 
    dof ry rz
    limits (-10.0 20.0)
           (-20.0 0.0)
  end
  begin
     id 25 
     name rhumerus
     direction -1 -4.48965e-011 -1.81384e-027  
     length 5.6595   
     axis 180 30 90   XYZ
    dof rx ry rz
    limits (-90.0 60.0)
           (-90.0 90.0)
           (-90.0 90.0)
  end
  begin
     id 26 
     name rradius
     direction -1 -4.48996e-011 -8.09397e-027   
     length 3.37604   
     axis 180 30 90   XYZ
    dof rx
    limits (-10.0 170.0)
  end
  begin
     id 27 
     name rwrist
     direction -1 -4.48927e-011 -1.56669e-026   
     length 1.68802   
     axis 1.21142e-014 -90 -90   XYZ
    dof ry
    limits (-180.0 0.0)
  end
  begin
     id 28
     name rhand
     direction -1 -4.48912e-011 -3.13339e-026   
     length 0.824702   
     axis 1.99937e-014 -90 -90   XYZ
    dof rx rz
    limits (-90.0 90.0)
           (-45.0 45.0)
  end
  begin
     id 29
     name rfingers
     direction -1 -4.49011e-011 -6.26677e-026   
     length 0.664896   
     axis 3.99874e-014 -90 -90   XYZ
    dof rx
    limits (0.0 90.0)
  end
  begin
     id 30
     name rthumb
     direction -0.707107 -6.34931e-011 0.707107   
     length 0.954662   
     axis -90 -45 -2.85299e-015   XYZ
    dof rx rz
    limits (-45.0 45.0)
           (-45.0 45.0)
  end
:hierarchy
  begin
    root lhipjoint rhipjoint lowerback
    lhipjoint lfemur
    lfemur ltibia
    ltibia lfoot
    lfoot ltoes
    rhipjoint rfemur
    rfemur rtibia
    rtibia rfoot
    rfoot rtoes
    lowerback upperback
    upperback thorax
    thorax lowerneck lclavicle rclavicle
    lowerneck upperneck
    upperneck head
    lclavicle lhumerus
    lhumerus lradius
    lradius lwrist
    lwrist lhand lthumb
    lhand lfingers
    rclavicle rhumerus
    rhumerus rradius
    rradius rwrist
    rwrist rhand rthumb
    rhand rfingers
  end

#!OML:ASF F:\VICON\USERDATA\INSTALL\rory3\rory3.ASF
:FULLY-SPECIFIED
:DEGREES
179
root 13.9307 17.7274 -40.9145 9.50182 -48.6071 -1.68198
lowerback 6.93478 -1.07739 -8.57986
upperback 0.354479 -2.04922 1.84893
thorax -3.15931 -0.888446 6.97317
lowerneck -13.1974 -0.011295 -11.7405
upperneck 18.4664 0.702489 8.64137
head 7.77441 0.31658 4.91756
rclavicle 5.22307e-014 6.36111e-015
rhumerus -37.0434 -15.8613 -72.4492
rradius 40.267
rwrist -16.3653
rhand -10.5849 17.7033
rfingers 7.12502
rthumb 15.4204 -11.7016
lclavicle 5.22307e-014 6.36111e-015
lhumerus -26.3498 18.7368 80.5484
lradius 32.4288
lwrist -1.4037
lhand -6.39647 30.4122
lfingers 7.12502
lthumb 19.4512 59.4593
rfemur -30.2578 4.99751 9.35238
rtibia 54.0995
rfoot -12.5252 0.470499
rtoes 7.76718
lfemur -17.1817 9.97454 -28.208
ltibia 40.4891
lfoot -25.6098 15.5983
ltoes -0.379528
180
root 13.9174 17.7306 -40.9001 9.57586 -48.5898 -1.60648
lowerback 7.01137 -1.16333 -8.80596
upperback 0.264028 -2.18862 1.93003
thorax -3.26081 -0.945418 7.20622
lowerneck -13.1707 0.146743 -11.9649
upperneck 18.5565 0.93621 8.7691
head 7.77001 0.421365 5.02381
rclavicle 3.45885e-014 -2.26615e-014
rhumerus -36.9889 -15.7734 -72.3946
rradius 40.3097
rwrist -16.324
rhand -10.5422 17.684
rfingers 7.12502
rthumb 15.4615 -11.7177
lclavicle 3.45885e-014 -2.26615e-014
lhumerus -26.1244 18.7518 80.6457
lradius 32.2873
lwrist -1.20407
lhand -2.8794 32.9349
lfingers 7.12502
lthumb 22.8297 61.6037
rfemur -30.5178 4.77079 9.34668
rtibia 54.4186
rfoot -12.5611 0.429983
rtoes 7.98605
lfemur -17.2389 9.76345 -28.2567
ltibia 40.4866
lfoot -25.4621 15.7076
ltoes -0.838297
181
root 13.9016 17.7326 -40.8924 9.68648 -48.6768 -1.56745
lowerback 7.10731 -1.18709 -9.15735
upperback 0.140012 -2.256 2.09351
thorax -3.4135 -0.959358 7.59634
lowerneck -13.0018 0.292719 -12.1876
upperneck 18.5867 1.17387 8.71432
head 7.72203 0.509442 5.06262
rclavicle -2.8625e-014 -3.97569e-015
rhumerus -36.9876 -15.6686 -72.2236
rradius 40.3419
rwrist -16.3426
rhand -10.6671 17.64
rfingers 7.12502
rthumb 15.3412 -11.7709
lclavicle -2.8625e-014 -3.97569e-015
lhumerus -26.0973 18.8911 80.7897
lradius 32.4294
lwrist -1.0445
lhand -3.57798 32.2733
lfingers 7.12502
lthumb 22.1592 61.0233
rfemur -30.8098 4.84596 9.31599
rtibia 54.7281
rfoot -12.5076 0.403703
rtoes 9.86672
lfemur -17.374 9.78274 -28.2567
ltibia 40.5285
lfoot -25.4941 15.5201
ltoes 0.0677432
182
root 13.8846 17.732 -40.8778 10.0201 -48.8158 -1.89453
lowerback 7.11069 -1.14738 -8.99259
upperback 0.109855 -2.19029 2.10771
thorax -3.46546 -0.925241 7.51241
lowerneck -12.9022 0.347729 -12.0039
upperneck 18.4982 1.23351 8.55277
head 7.67148 0.535761 4.97714
rclavicle 5.56597e-014 1.51076e-014
rhumerus -36.9857 -16.0342 -72.2198
rradius 40.3322
rwrist -16.2088
rhand -10.7109 17.7697
rfingers 7.12502
rthumb 15.299 -11.6445
lclavicle 5.56597e-014 1.51076e-014
lhumerus -25.9543 18.6947 80.8246
lradius 32.5738
lwrist -1.05768
lhand -4.21594 31.8817
lfingers 7.12502
lthumb 21.5466 60.7031
rfemur -31.0402 4.95712 9.5713
rtibia 54.9956
rfoot -12.2307 0.33083
rtoes 11.1602
lfemur -17.4685 9.85785 -28.0046
ltibia 40.5815
lfoot -25.6247 15.3364
ltoes 1.05093
183
root 13.8662 17.7316 -40.8399 10.2009 -48.9395 -2.0739
lowerback 6.96729 -1.1361 -8.5963
upperback 0.148873 -2.13507 1.92702
thorax -3.37477 -0.911677 7.07965
lowerneck -13.0157 0.391688 -11.6418
upperneck 18.4912 1.22194 8.59581
head 7.69146 0.561896 4.9317
rclavicle 3.49861e-014 2.18663e-014
rhumerus -37.0384 -16.6402 -72.3302
rradius 40.3653
rwrist -15.9141
rhand -10.5813 17.8964
rfingers 7.12502
rthumb 15.4238 -11.5082
lclavicle 3.49861e-014 2.18663e-014
lhumerus -25.7361 18.2912 80.773
lradius 32.5609
lwrist -1.08346
lhand -6.50388 30.1464
lfingers 7.12502
lthumb 19.3479 59.2039
rfemur -31.1458 4.71594 9.73018
rtibia 55.2263
rfoot -11.8495 0.277916
rtoes 9.53325
lfemur -17.372 9.78421 -27.936
ltibia 40.6079
lfoot -25.7838 15.3956
ltoes 1.04492
184
root 13.8451 17.7315 -40.8112 10.1238 -48.9853 -1.89578
lowerback 6.9177 -1.18661 -8.66227
upperback 0.157744 -2.20707 1.80692
thorax -3.32661 -0.949989 6.99269
lowerneck -13.129 0.472352 -11.4614
upperneck 18.613 1.29659 8.62216
head 7.74366 0.611487 4.92328
rclavicle -1.72943e-014 -6.75868e-015
rhumerus -37.0958 -16.6727 -72.4481
rradius 40.483
rwrist -15.8183
rhand -10.6028 17.8625
rfingers 7.12502
rthumb 15.4031 -11.5437
lclavicle -1.72943e-014 -6.75868e-015
lhumerus -25.5525 18.1636 80.7072
lradius 32.49
lwrist -1.16539
lhand -4.0079 32.652
lfingers 7.12502
lthumb 21.7464 61.4504
rfemur -31.2612 4.28496 9.7069
rtibia 55.4462
rfoot -11.5273 0.00063864
rtoes 6.01713
lfemur -17.2586 9.78529 -28.0917
ltibia 40.5913
lfoot -25.668 15.5265
ltoes -0.00590811
185
root 13.8212 17.7328 -40.7921 10.1243 -49.1458 -1.96369
lowerback 7.01939 -1.21755 -8.8318
upperback 0.17641 -2.26778 1.89024
thorax -3.34341 -0.976919 7.18761
lowerneck -13.2643 0.577225 -11.4809
upperneck 18.7762 1.49559 8.42165
head 7.80307 0.683834 4.88445
rclavicle -2.85256e-014 1.86858e-014
rhumerus -36.9945 -16.1619 -72.5339
rradius 40.5197
rwrist -16.0864
rhand -10.7 17.7731
rfingers 7.12502
rthumb 15.3095 -11.6402
lclavicle -2.85256e-014 1.86858e-014
lhumerus -25.4321 18.1291 80.742
lradius 32.4173
lwrist -1.02938
lhand -4.0778 32.1278
lfingers 7.12502
lthumb 21.6792 60.934
rfemur -31.3205 4.20807 9.83579
rtibia 55.6472
rfoot -11.2968 -0.254987
rtoes 4.78798
lfemur -17.0814 9.93353 -28.0393
ltibia 40.5561
lfoot -25.4838 15.6632
ltoes -0.894569
186
root 13.7941 17.732 -40.7525 10.0946 -49.5853 -2.22154
lowerback 7.10134 -1.19702 -8.86926
upperback 0.243595 -2.24272 2.07475
thorax -3.3146 -0.967061 7.40649
lowerneck -13.6604 0.715591 -11.5464
upperneck 19.2051 1.79601 8.1141
head 7.98896 0.787061 4.84062
rclavicle -7.74266e-014 -7.15625e-015
rhumerus -36.8455 -15.5941 -72.4538
rradius 40.4466
rwrist -16.1864
rhand -10.7722 17.7374
rfingers 7.12502
rthumb 15.2399 -11.6812
lclavicle -7.74266e-014 -7.15625e-015
lhumerus -25.5024 18.3588 80.8409
lradius 32.4966
lwrist -0.852915
lhand -3.53441 32.6618
lfingers 7.12502
lthumb 22.201 61.4068
rfemur -31.2234 4.37153 9.98595
rtibia 55.8704
rfoot -11.1338 -0.242665
rtoes 5.30322
lfemur -16.683 10.0751 -27.9363
ltibia 40.5718
lfoot -25.6287 15.8889
ltoes -1.14636
187
root 13.7749 17.7401 -40.7448 10.3956 -49.3928 -2.24537
lowerback 7.11068 -1.35202 -9.05808
upperback 0.11492 -2.465 2.20426
thorax -3.39956 -1.06433 7.67654
lowerneck -13.8888 0.821677 -11.5642
upperneck 19.4882 1.98367 8.02074
head 8.10565 0.86093 4.84394
rclavicle -2.08724e-014 -1.66979e-014
rhumerus -36.8205 -15.3342 -72.3909
rradius 40.4475
rwrist -16.1641
rhand -10.5884 17.7383
rfingers 7.12502
rthumb 15.417 -11.6668
lclavicle -2.08724e-014 -1.66979e-014
lhumerus -25.4709 18.6962 80.8319
lradius 32.5812
lwrist -1.00899
lhand -3.14911 32.9871
lfingers 7.12502
lthumb 22.5709 61.6877
rfemur -31.5987 4.02927 10.1816
rtibia 56.1083
rfoot -11.0027 -0.692855
rtoes 4.17168
lfemur -16.914 9.61214 -27.8832
ltibia 40.5849
lfoot -25.6183 16.0184
ltoes -1.2481
188
root 13.7514 17.731 -40.7362 10.609 -49.333 -2.29822
lowerback 7.06786 -1.34841 -8.97276
upperback 0.106822 -2.45355 2.08375
thorax -3.39495 -1.06059 7.49529
lowerneck -13.8138 0.875681 -11.4711
upperneck 19.375 1.99877 8.17868
head 8.04981 0.892842 4.87854
rclavicle 1.32689e-013 -7.15625e-015
rhumerus -36.9126 -15.614 -72.4624
rradius 40.4937
rwrist -16.1757
rhand -10.4085 17.7107
rfingers 7.12502
rthumb 15.5903 -11.681
lclavicle 1.32689e-013 -7.15625e-015
lhumerus -25.0709 18.3604 80.7804
lradius 32.434
lwrist -0.762596
lhand -3.64792 32.6033
lfingers 7.12502
lthumb 22.092 61.3613
rfemur -31.9432 3.91529 10.3904
rtibia 56.4198
rfoot -10.8262 -1.15727
rtoes 2.99353
lfemur -17.0884 10.8324 -27.6909
ltibia 40.6168
lfoot -25.3362 14.9723
ltoes -2.22767
189
root 13.7275 17.7362 -40.7091 10.6456 -49.3625 -2.23101
lowerback 7.00598 -1.29804 -8.8937
upperback 0.120096 -2.37851 1.94798
thorax -3.36953 -1.02714 7.29498
lowerneck -13.7047 0.878548 -11.3035
upperneck 19.2822 1.96737 8.11805
head 8.00522 0.884883 4.82104
rclavicle 7.2457e-014 -1.70955e-014
rhumerus -37.0507 -15.8665 -72.4679
rradius 40.5216
rwrist -16.2106
rhand -10.5282 17.6968
rfingers 7.12502
rthumb 15.475 -11.7038
lclavicle 7.2457e-014 -1.70955e-014
lhumerus -24.5443 17.5225 80.7532
lradius 32.1377
lwrist -0.181543
lhand -4.1429 32.2338
lfingers 7.12502
lthumb 21.6167 61.0472
rfemur -32.1197 3.82712 10.4299
rtibia 56.7052
rfoot -10.5643 -1.36971
rtoes 3.36116
lfemur -17.0211 10.384 -27.7803
ltibia 40.5892
lfoot -25.4434 15.2736
ltoes -1.56041
190
root 13.7001 17.7329 -40.6752 10.423 -49.4913 -1.9166
lowerback 6.96949 -1.31902 -9.18026
upperback 0.107352 -2.42648 1.95199
thorax -3.34195 -1.04731 7.46616
lowerneck -13.5003 0.915352 -11.3293
upperneck 19.1995 2.03472 7.95901
head 7.93666 0.897832 4.77
rclavicle 1.72943e-014 -1.74931e-014
rhumerus -37.1378 -15.4365 -72.4379
rradius 40.5851
rwrist -16.5977
rhand -10.4697 17.7443
rfingers 7.12502
rthumb 15.5313 -11.6519
lclavicle 1.72943e-014 -1.74931e-014
lhumerus -24.7798 18.0512 80.8253
lradius 32.3473
lwrist -1.02293
lhand -4.03633 32.0558
lfingers 7.12502
lthumb 21.7191 60.8574
rfemur -32.2073 3.65616 10.2401
rtibia 57.0096
rfoot -10.4332 -1.3328
rtoes 5.76918
lfemur -16.8734 10.3012 -28.0522
ltibia 40.5946
lfoot -25.5853 15.4204
ltoes -1.866
